<svg width="154" height="62" viewBox="0 0 154 62" fill="none" xmlns="http://www.w3.org/2000/svg">
<path d="M150.712 30.8647C144.673 38.7915 142.955 49.3923 141.452 59.0881C141.452 59.0881 141.392 59.6635 141.069 59.6526C140.746 59.6418 140.76 59.0649 140.76 59.0649C140.297 51.3586 140.605 43.5684 142.653 36.0331C98.6406 67.5469 30.3934 43.0607 2.08694 1.04081C2.08694 1.04081 1.62059 0.488182 2.03604 0.149928C2.45148 -0.188325 3.06042 0.415275 3.06042 0.415275C19.9849 20.0373 50.2251 35.7587 69.6016 39.2616C97.3499 44.2696 115.188 40.9771 138.686 33.4979C131.135 35.9061 121.412 30.9663 117.305 23.6631C117.305 23.6631 117.07 23.2799 117.219 23.1232C117.369 22.9666 117.796 23.1426 117.796 23.1426C123.787 25.5782 130.21 25.9787 136.572 26.302C141.544 26.8207 146.559 26.7954 151.526 26.2268C151.797 26.1989 152.071 26.2527 152.312 26.3811C152.552 26.5096 152.75 26.7069 152.878 26.9479C153.006 27.1889 153.059 27.4627 153.031 27.7342C153.003 28.0058 152.895 28.2628 152.72 28.4725L150.712 30.8647Z" fill="#B68C5A"/>
<path d="M28.4365 38.2661C29.6181 40.2388 31.5013 41.692 33.7088 42.3347C33.809 42.3615 33.9151 42.3551 34.0113 42.3164C34.1075 42.2778 34.1885 42.2089 34.2423 42.1203C34.296 42.0316 34.3195 41.9279 34.3093 41.8247C34.2991 41.7215 34.2556 41.6245 34.1855 41.5481C32.695 39.9991 30.99 38.6721 29.1225 37.6078C29.0319 37.5338 28.9174 37.4956 28.8005 37.5003C28.6837 37.505 28.5726 37.5523 28.4883 37.6333C28.4039 37.7143 28.3521 37.8233 28.3425 37.9399C28.333 38.0564 28.3664 38.1725 28.4365 38.2661Z" fill="#B68C5A"/>
<path d="M37.6504 44.4069C50.2522 54.3742 67.0291 60.1687 83.0643 58.1378C83.1501 58.136 83.2317 58.1003 83.2912 58.0384C83.3506 57.9765 83.3831 57.8936 83.3814 57.8078C83.3797 57.7219 83.3439 57.6403 83.2821 57.5808C83.2202 57.5214 83.1372 57.4889 83.0514 57.4907C67.1994 56.3002 52.1368 51.0252 37.998 43.8528C37.9246 43.8067 37.8358 43.7916 37.7513 43.811C37.6667 43.8303 37.5933 43.8825 37.5472 43.956C37.5011 44.0295 37.4861 44.1183 37.5054 44.2028C37.5248 44.2874 37.5769 44.3608 37.6504 44.4069Z" fill="#B68C5A"/>
</svg>
