<svg width="60" height="60" viewBox="0 0 60 60" fill="none" xmlns="http://www.w3.org/2000/svg">
<g opacity="0.25">
<path d="M17.1839 24.2565C12.2258 23.7857 10.8226 23.7857 5.8645 24.2565V12.1104C10.8226 12.6753 12.2258 12.6753 17.1839 12.1104V24.2565Z" stroke="white" stroke-width="2" stroke-miterlimit="10" stroke-linecap="round" stroke-linejoin="round"/>
<path d="M3.43226 26.7044C4.83548 26.7044 5.86452 25.5745 5.86452 24.2563V12.2044C5.86452 10.7921 4.74194 9.75635 3.43226 9.75635C2.02903 9.75635 1 10.8862 1 12.2044V24.2563C1 25.5745 2.12258 26.7044 3.43226 26.7044Z" stroke="white" stroke-width="2" stroke-miterlimit="10" stroke-linecap="round" stroke-linejoin="round"/>
<path d="M19.7097 26.7044C21.1129 26.7044 22.1419 25.5745 22.1419 24.2563V12.2044C22.1419 10.7921 21.0194 9.75635 19.7097 9.75635C18.3065 9.75635 17.2774 10.8862 17.2774 12.2044V24.2563C17.1839 25.5745 18.3065 26.7044 19.7097 26.7044Z" stroke="white" stroke-width="2" stroke-miterlimit="10" stroke-linecap="round" stroke-linejoin="round"/>
<path d="M9.23218 24.2563V49.3018C9.23218 50.62 10.2612 51.6557 11.5709 51.6557C12.8806 51.6557 13.9096 50.62 13.9096 49.3018V24.2563" stroke="white" stroke-width="2" stroke-miterlimit="10" stroke-linecap="round" stroke-linejoin="round"/>
<path d="M25.4162 50.3375H42.442C44.8743 50.3375 46.7452 52.3148 46.7452 54.6687C46.7452 57.1167 44.7807 58.9998 42.442 58.9998H23.4517C20.7388 58.9998 18.5872 56.8343 18.5872 54.1037V45.4414" stroke="white" stroke-width="2" stroke-miterlimit="10" stroke-linecap="round" stroke-linejoin="round"/>
<path d="M59.0003 59.0001V39.1332C59.0003 36.0261 56.9423 33.2014 53.9487 32.2598L44.8745 28.7761V24.5391" stroke="white" stroke-width="2" stroke-miterlimit="10" stroke-linecap="round" stroke-linejoin="round"/>
<path d="M49.1777 11.263V18.2305C49.1777 20.7727 47.5874 23.0325 45.1551 23.8799L42.1616 24.9156C40.1035 25.6688 37.7648 25.6688 35.7068 24.9156L32.8068 23.8799C30.3745 23.0325 28.7842 20.7727 28.7842 18.2305V11.263C28.7842 5.61364 33.368 1 38.981 1C44.6874 1 49.1777 5.61364 49.1777 11.263Z" stroke="white" stroke-width="2" stroke-miterlimit="10" stroke-linecap="round" stroke-linejoin="round"/>
<path d="M43.6584 2.12988L29.1584 9.56819" stroke="white" stroke-width="2" stroke-miterlimit="10" stroke-linecap="round" stroke-linejoin="round"/>
<path d="M38.3259 9.66246L47.213 5.04883" stroke="white" stroke-width="2" stroke-miterlimit="10" stroke-linecap="round" stroke-linejoin="round"/>
<path d="M28.7842 9.6626H49.2713V13.9938H28.7842V9.6626Z" stroke="white" stroke-width="2" stroke-miterlimit="10" stroke-linecap="round" stroke-linejoin="round"/>
<path d="M23.2646 32.6362V58.9998H38.9808L28.784 30.9414" stroke="white" stroke-width="2" stroke-miterlimit="10" stroke-linecap="round" stroke-linejoin="round"/>
<path d="M51.2356 45.9121V58.9998" stroke="white" stroke-width="2" stroke-miterlimit="10" stroke-linecap="round" stroke-linejoin="round"/>
<path d="M18.5872 45.4416V39.1331C18.5872 36.026 20.6452 33.2013 23.6388 32.2598L32.713 28.776V23.8799" stroke="white" stroke-width="2" stroke-miterlimit="10" stroke-linecap="round" stroke-linejoin="round"/>
<path d="M43.0967 38.3799H50.3935" stroke="white" stroke-width="2" stroke-miterlimit="10" stroke-linecap="round" stroke-linejoin="round"/>
</g>
</svg>
